<svg viewBox="0 0 1000 256.8" xmlns="http://www.w3.org/2000/svg" xmlns:xlink="http://www.w3.org/1999/xlink" id="Layer_1" xml:space="preserve" overflow="hidden"><style>
.MsftOfcThm_Background1_Fill_v2 {
 fill:#FFFFFF; 
}
</style>
<g><g><path d="M119.1 105.3C139.3 99.6 150.2 87.6 150.2 66.5 150.2 37.4 124.8 23.9 89.5 23.9L18.8 23.9C17.8 23.9 17.1 24.6 17.1 25.6L17.6 109.7 17.1 196.3C17.1 197.3 17.8 198 18.8 198L90.2 198C124.3 198 155.2 183.1 155.2 145.7 155 126.2 143.7 110.8 119.1 105.3ZM47.7 46.5 89.8 46.5C107 46.5 119.7 54.2 119.7 71.1 119.7 87.8 108.2 95.5 89.8 95.5L47.2 95.5 47.7 46.5ZM89.7 175.5 47.7 175.5 47.2 118 89.8 118C108.2 118 124.4 125.5 124.4 145.9 124.3 168.3 109.7 175.5 89.7 175.5Z" class="MsftOfcThm_Background1_Fill_v2" stroke="none" stroke-width="1" stroke-linecap="butt" stroke-linejoin="miter" stroke-miterlimit="4" fill="#FFFFFF" fill-opacity="1"/><path d="M197.7 23.9 171.6 23.9C170.6 23.9 169.9 24.6 169.9 25.6L170.6 110.5 169.9 196.4C169.9 197.4 170.6 198.1 171.6 198.1L197.7 198.1C198.7 198.1 199.4 197.4 199.4 196.4L198.9 110.5 199.4 25.6C199.4 24.6 198.7 23.9 197.7 23.9Z" class="MsftOfcThm_Background1_Fill_v2" stroke="none" stroke-width="1" stroke-linecap="butt" stroke-linejoin="miter" stroke-miterlimit="4" fill="#FFFFFF" fill-opacity="1"/><path d="M414 67C375.2 67 351.5 93.9 351.5 134.4 351.5 173.5 373.7 201.1 415 201.1 449.6 201.1 470.5 180.9 474 156.1 474.2 155.1 473.5 154.4 472.5 154.4L447.1 154.4C446.1 154.4 445.1 155.1 445.1 156.1 441.4 172.3 431.2 180 415.5 180 393.8 180 382.6 167.1 381.4 139.7L475.2 139.7C476.2 139.7 476.9 139 476.9 138 476.4 93.8 453.8 67 414 67ZM382.3 119.5C385.5 98.8 396.2 87.9 414.2 87.9 433.9 87.9 443.3 102.8 444.6 119.5L382.3 119.5Z" class="MsftOfcThm_Background1_Fill_v2" stroke="none" stroke-width="1" stroke-linecap="butt" stroke-linejoin="miter" stroke-miterlimit="4" fill="#FFFFFF" fill-opacity="1"/><path d="M562.5 67.5C545.3 67.5 531.9 75 523.2 87.7L523.7 71.8C523.7 70.8 523 70.1 522 70.1L495.4 70.1C494.4 70.1 493.7 70.8 493.7 71.8L494.2 144.5 493.7 238.8C493.7 239.8 494.4 240.5 495.4 240.5L522.3 240.5C523.3 240.5 524 239.8 524 238.8L523.5 182.3C532.2 194.2 545.4 200.7 562.1 200.7 596.4 200.7 616.9 170.8 616.9 133.7 616.8 96.3 597.9 67.5 562.5 67.5ZM553.8 179.2C533.4 179.2 522.2 162.5 522.4 132.9 522.6 104 534.3 89.1 554.3 89.1 575.7 89.1 586.2 106.3 586.2 135.4 586.2 162.8 575.5 179.2 553.8 179.2Z" class="MsftOfcThm_Background1_Fill_v2" stroke="none" stroke-width="1" stroke-linecap="butt" stroke-linejoin="miter" stroke-miterlimit="4" fill="#FFFFFF" fill-opacity="1"/><path d="M714.4 69.7C712.2 69.2 709.7 69 707.4 69 689 69 672.3 77 662.6 92.4L663.6 71.7C663.6 70.7 662.9 70 661.9 70L635.5 70C634.5 70 633.8 70.7 633.8 71.7L634.5 133.4 633.8 196.4C633.8 197.4 634.5 198.1 635.5 198.1L661.9 198.1C662.9 198.1 663.6 197.4 663.6 196.4L663.6 136.2C664.3 107.1 684 92.9 708.2 92.9 710.4 92.9 712.7 93.1 714.4 93.1 715.4 93.3 716.1 92.6 716.1 91.6L716.1 71.7C716.1 70.7 715.4 69.7 714.4 69.7Z" class="MsftOfcThm_Background1_Fill_v2" stroke="none" stroke-width="1" stroke-linecap="butt" stroke-linejoin="miter" stroke-miterlimit="4" fill="#FFFFFF" fill-opacity="1"/><path d="M248.9 150.1C248.9 150.9 248.9 151.6 249 152.3L249 137 248.9 150.1Z" class="MsftOfcThm_Background1_Fill_v2" stroke="none" stroke-width="1" stroke-linecap="butt" stroke-linejoin="miter" stroke-miterlimit="4" fill="#FFFFFF" fill-opacity="1"/><path d="M249 152.6 249 152.6C249 152.5 249 152.4 249 152.3L249 152.6Z" class="MsftOfcThm_Background1_Fill_v2" stroke="none" stroke-width="1" stroke-linecap="butt" stroke-linejoin="miter" stroke-miterlimit="4" fill="#FFFFFF" fill-opacity="1"/><path d="M304.2 138.4 304.2 123.8 304.2 139.4C304.2 139 304.2 138.7 304.2 138.4Z" class="MsftOfcThm_Background1_Fill_v2" stroke="none" stroke-width="1" stroke-linecap="butt" stroke-linejoin="miter" stroke-miterlimit="4" fill="#FFFFFF" fill-opacity="1"/><path d="M304.2 139.3C304.2 139.7 304.2 140 304.2 140.4L304.2 140.4 304.2 139.3Z" class="MsftOfcThm_Background1_Fill_v2" stroke="none" stroke-width="1" stroke-linecap="butt" stroke-linejoin="miter" stroke-miterlimit="4" fill="#FFFFFF" fill-opacity="1"/><path d="M332.6 69.9 305.9 69.9C304.9 69.9 304.1 70.7 304.1 71.7L304.1 140.4 304.1 140.4C303.4 165.2 289.4 177.7 272.6 177.7 256.5 177.7 249.7 168 249 152.6L249 152.6 249 71.8C249 70.8 248.2 70 247.2 70L221.3 70C220.3 70 219.5 70.8 219.5 71.8L220 150.8C220 183.2 237.2 201.1 263.8 201.1 283 201.1 297.6 191.4 305.9 179.4L305.2 196.3C305.2 197.3 305.9 198 306.9 198L332.5 198C333.5 198 334.2 197.3 334.2 196.3L334.6 71.7C334.5 70.8 333.6 69.9 332.6 69.9Z" class="MsftOfcThm_Background1_Fill_v2" stroke="none" stroke-width="1" stroke-linecap="butt" stroke-linejoin="miter" stroke-miterlimit="4" fill="#FFFFFF" fill-opacity="1"/><path d="M785 198.1 811.7 198.1C812.7 198.1 813.5 197.3 813.5 196.3L813.5 127.6 813.5 127.6C814.2 102.8 828.2 90.3 845 90.3 861.1 90.3 867.9 100 868.6 115.4L868.6 115.4 868.6 196.2C868.6 197.2 869.4 198 870.4 198L896.3 198C897.3 198 898.1 197.2 898.1 196.2L897.6 117.2C897.6 84.8 880.4 66.9 853.8 66.9 834.6 66.9 820 76.6 811.7 88.6L812.4 71.7C812.4 70.7 811.7 70 810.7 70L785.1 70C784.1 70 783.4 70.7 783.4 71.7L783 196.3C783.1 197.3 784 198.1 785 198.1Z" class="MsftOfcThm_Background1_Fill_v2" stroke="none" stroke-width="1" stroke-linecap="butt" stroke-linejoin="miter" stroke-miterlimit="4" fill="#FFFFFF" fill-opacity="1"/><path d="M761 43.1 734.3 49.5C733.1 49.8 732 48.9 732 47.7L732 21.1C732 20.3 732.6 19.5 733.4 19.3L760.1 12.9C761.3 12.6 762.4 13.5 762.4 14.7L762.4 41.3C762.4 42.1 761.8 42.9 761 43.1Z" class="MsftOfcThm_Background1_Fill_v2" stroke="none" stroke-width="1" stroke-linecap="butt" stroke-linejoin="miter" stroke-miterlimit="4" fill="#FFFFFF" fill-opacity="1"/><path d="M732 71.5 732 196.2C732 197.3 732.9 198.2 734 198.2L760.4 198.2C761.5 198.2 762.4 197.3 762.4 196.2L762.4 65C762.4 63.8 761.3 62.9 760.1 63.2L733.4 69.7C732.6 69.9 732 70.6 732 71.5Z" class="MsftOfcThm_Background1_Fill_v2" stroke="none" stroke-width="1" stroke-linecap="butt" stroke-linejoin="miter" stroke-miterlimit="4" fill="#FFFFFF" fill-opacity="1"/></g><path d="M982.9 90.6 982.9 71.7C982.9 70.7 982.1 70 981.2 70L951.7 70 951.7 58.2 951.8 39.6C951.8 38.5 950.9 37.7 949.9 37.8 949.7 37.8 949.6 37.8 949.4 37.8L922.7 44.2C921.9 44.4 921.3 45.1 921.3 46L921.3 69.9 907.3 69.9C906.3 69.9 905.6 70.7 905.6 71.6L905.6 90.5C905.6 91.5 906.4 92.2 907.3 92.2L922 92.2 922 161.4C922 190 940.2 200.2 960.3 200.2 967.3 200.2 975 198.5 981 196.5 982 196.3 982.7 195.3 982.7 194.3L982.7 177C982.7 176.3 982 175.5 981 175.8 977.3 176.8 972.5 177.8 966.8 177.8 957.1 177.8 951.9 173.8 951.9 160.9L951.7 92.5 981.3 92.5C982.2 92.3 982.9 91.6 982.9 90.6Z" class="MsftOfcThm_Background1_Fill_v2" stroke="none" stroke-width="1" stroke-linecap="butt" stroke-linejoin="miter" stroke-miterlimit="4" fill="#FFFFFF" fill-opacity="1"/></g></svg>