<?xml version="1.0" encoding="UTF-8"?>
<svg xmlns="http://www.w3.org/2000/svg" viewBox="0 0 960 380" role="img" aria-label="Animated metadata framework flow">
  <defs>
    <linearGradient id="bg2" x1="0" y1="0" x2="1" y2="1">
      <stop offset="0%" stop-color="#1B3139"/>
      <stop offset="100%" stop-color="#122228"/>
    </linearGradient>
    <marker id="arr" markerWidth="8" markerHeight="8" refX="6" refY="3" orient="auto">
      <path d="M0,0 L6,3 L0,6 Z" fill="#00A972"/>
    </marker>
  </defs>

  <rect width="960" height="380" fill="url(#bg2)" rx="12"/>
  <text x="480" y="34" text-anchor="middle" fill="#FF3621" font-family="Segoe UI, sans-serif" font-size="21" font-weight="700">Metadata-Driven Framework Silver/Gold (MDFSG)</text>
  <text x="480" y="56" text-anchor="middle" fill="#8ab4b8" font-family="Segoe UI, sans-serif" font-size="12">Config row in - reusable notebook out - no new pipeline code per table</text>

  <g font-family="Segoe UI, sans-serif" font-size="11">
    <rect x="30" y="110" width="120" height="60" rx="8" fill="#243a42" stroke="#00A972" stroke-width="2"/>
    <text x="90" y="136" text-anchor="middle" fill="#fff">Bronze Delta</text>
    <text x="90" y="154" text-anchor="middle" fill="#8ab4b8">CDF versions</text>

    <rect x="190" y="95" width="150" height="90" rx="8" fill="#2a1f1d" stroke="#FF3621" stroke-width="2"/>
    <text x="265" y="122" text-anchor="middle" fill="#FF5F46" font-weight="600">MDFSG UI</text>
    <text x="265" y="140" text-anchor="middle" fill="#e8f4f5">Developer config</text>
    <text x="265" y="158" text-anchor="middle" fill="#8ab4b8">SCD / SQL / targets</text>

    <rect x="380" y="95" width="180" height="90" rx="8" fill="#1e3339" stroke="#ffd700" stroke-width="2"/>
    <text x="470" y="122" text-anchor="middle" fill="#ffd700" font-weight="600">framework_process_config</text>
    <text x="470" y="142" text-anchor="middle" fill="#e8f4f5">Metadata table</text>
    <text x="470" y="160" text-anchor="middle" fill="#8ab4b8">source / merge / write mode</text>

    <rect x="600" y="110" width="140" height="60" rx="8" fill="#243a42" stroke="#00A972" stroke-width="2"/>
    <text x="670" y="136" text-anchor="middle" fill="#fff">framework_main</text>
    <text x="670" y="154" text-anchor="middle" fill="#8ab4b8">Reusable notebook</text>

    <rect x="780" y="95" width="150" height="90" rx="8" fill="#2d4a52" stroke="#c0c0c0" stroke-width="2"/>
    <text x="855" y="128" text-anchor="middle" fill="#fff">Silver / Gold</text>
    <text x="855" y="148" text-anchor="middle" fill="#8ab4b8">SCD Type 1 &amp; 2</text>
    <text x="855" y="166" text-anchor="middle" fill="#8ab4b8">Logged DML</text>
  </g>

  <rect x="380" y="230" width="200" height="50" rx="8" fill="#243a42" stroke="#7ec8e3" stroke-width="1.5"/>
  <text x="480" y="260" text-anchor="middle" fill="#7ec8e3" font-family="Segoe UI, sans-serif" font-size="11">silver/gold_version_history</text>

  <g stroke="#3d5a62" stroke-width="2" fill="none" marker-end="url(#arr)">
    <path d="M150,140 L190,140"/>
    <path d="M340,140 L380,140"/>
    <path d="M560,140 L600,140"/>
    <path d="M740,140 L780,140"/>
    <path d="M470,185 L470,230"/>
    <path d="M580,255 L670,170"/>
    <!-- CDF incremental loop (dashed) -->
    <path d="M90,170 L90,255 L480,255 L670,170 L855,140" stroke="#c4a35a" stroke-dasharray="5 4"/>
  </g>

  <!-- Green: primary load path (left to right) -->
  <circle r="5" fill="#00A972">
    <animateMotion dur="4s" repeatCount="indefinite" path="M150,140 L340,140 L560,140 L740,140 L855,140"/>
  </circle>
  <!-- Red: metadata row written to version history after config -->
  <circle r="4" fill="#FF3621">
    <animateMotion dur="3s" repeatCount="indefinite" begin="0.8s" path="M470,185 L470,230 L580,255 L670,170"/>
  </circle>
  <!-- Yellow: incremental CDF path - Bronze change feed to version history to framework_main to Silver/Gold -->
  <circle r="4" fill="#ffd700">
    <animateMotion dur="3.5s" repeatCount="indefinite" begin="1.2s" path="M90,170 L90,255 L480,255 L670,170 L740,140 L855,140"/>
  </circle>

  <g font-family="Segoe UI, sans-serif" font-size="10" fill="#8ab4b8">
    <text x="90" y="310">(1) Bronze change feed detected</text>
    <text x="320" y="310">(2) Developer adds metadata row (UI)</text>
    <text x="590" y="310">(3) framework_main executes merge</text>
    <text x="820" y="310">(4) Silver/Gold updated</text>
    <text x="480" y="292" text-anchor="middle" fill="#ffd700">Yellow = CDF incremental path via version_history</text>
  </g>

  <rect x="30" y="330" width="900" height="36" rx="6" fill="#FF3621" opacity="0.15"/>
  <text x="480" y="352" text-anchor="middle" fill="#FF5F46" font-family="Segoe UI, sans-serif" font-size="12" font-weight="600">New table = new config row - No custom notebook unless escape hatch needed</text>
</svg>
